<mxfile host="app.diagrams.net" agent="Mozilla/5.0 (Windows NT 10.0; Win64; x64) AppleWebKit/537.36 (KHTML, like Gecko) Chrome/135.0.0.0 Safari/537.36" version="26.2.14">
  <diagram id="SPis8ToKu25B0IFve_T9" name="Діаграма діяльності Процес оформленя замовлення">
    <mxGraphModel dx="1042" dy="596" grid="1" gridSize="10" guides="1" tooltips="1" connect="1" arrows="1" fold="1" page="1" pageScale="1" pageWidth="827" pageHeight="1169" math="0" shadow="0">
      <root>
        <mxCell id="0" />
        <mxCell id="1" parent="0" />
        <mxCell id="iC6Ny62_zK4hwb1LCVob-1" value="" style="ellipse;fillColor=#000000;strokeColor=#000000;" parent="1" vertex="1">
          <mxGeometry x="380" y="40" width="30" height="30" as="geometry" />
        </mxCell>
        <mxCell id="iC6Ny62_zK4hwb1LCVob-2" value="Перегляд каталогу товарів" style="rounded=1;whiteSpace=wrap;html=1;fillColor=#d5e8d4;strokeColor=#82b366;" parent="1" vertex="1">
          <mxGeometry x="335" y="100" width="120" height="60" as="geometry" />
        </mxCell>
        <mxCell id="iC6Ny62_zK4hwb1LCVob-3" value="Вибір товару" style="rounded=1;whiteSpace=wrap;html=1;fillColor=#d5e8d4;strokeColor=#82b366;" parent="1" vertex="1">
          <mxGeometry x="335" y="190" width="120" height="60" as="geometry" />
        </mxCell>
        <mxCell id="iC6Ny62_zK4hwb1LCVob-4" value="Додавання товару до кошика" style="rounded=1;whiteSpace=wrap;html=1;fillColor=#d5e8d4;strokeColor=#82b366;" parent="1" vertex="1">
          <mxGeometry x="335" y="330" width="120" height="60" as="geometry" />
        </mxCell>
        <mxCell id="iC6Ny62_zK4hwb1LCVob-5" value="Перегляд кошика" style="rounded=1;whiteSpace=wrap;html=1;fillColor=#d5e8d4;strokeColor=#82b366;" parent="1" vertex="1">
          <mxGeometry x="335" y="470" width="120" height="60" as="geometry" />
        </mxCell>
        <mxCell id="iC6Ny62_zK4hwb1LCVob-6" value="Введення даних доставки" style="rounded=1;whiteSpace=wrap;html=1;fillColor=#d5e8d4;strokeColor=#82b366;" parent="1" vertex="1">
          <mxGeometry x="180" y="730" width="120" height="60" as="geometry" />
        </mxCell>
        <mxCell id="iC6Ny62_zK4hwb1LCVob-7" value="Вибір способу оплати" style="rounded=1;whiteSpace=wrap;html=1;fillColor=#d5e8d4;strokeColor=#82b366;" parent="1" vertex="1">
          <mxGeometry x="470" y="660" width="120" height="60" as="geometry" />
        </mxCell>
        <mxCell id="iC6Ny62_zK4hwb1LCVob-8" value="Оплата замовлення" style="rounded=1;whiteSpace=wrap;html=1;fillColor=#d5e8d4;strokeColor=#82b366;" parent="1" vertex="1">
          <mxGeometry x="400" y="870" width="120" height="60" as="geometry" />
        </mxCell>
        <mxCell id="iC6Ny62_zK4hwb1LCVob-9" value="Підтвердження замовлення" style="rounded=1;whiteSpace=wrap;html=1;fillColor=#d5e8d4;strokeColor=#82b366;" parent="1" vertex="1">
          <mxGeometry x="335" y="1070" width="120" height="60" as="geometry" />
        </mxCell>
        <mxCell id="iC6Ny62_zK4hwb1LCVob-10" value="Генерація підтвердження замовлення" style="rounded=1;whiteSpace=wrap;html=1;fillColor=#d5e8d4;strokeColor=#82b366;" parent="1" vertex="1">
          <mxGeometry x="335" y="1160" width="120" height="60" as="geometry" />
        </mxCell>
        <mxCell id="iC6Ny62_zK4hwb1LCVob-11" value="" style="rhombus;whiteSpace=wrap;html=1;fillColor=#f8cecc;strokeColor=#b85450;" parent="1" vertex="1">
          <mxGeometry x="355" y="260" width="80" height="60" as="geometry" />
        </mxCell>
        <mxCell id="iC6Ny62_zK4hwb1LCVob-12" value="" style="rhombus;whiteSpace=wrap;html=1;fillColor=#f8cecc;strokeColor=#b85450;" parent="1" vertex="1">
          <mxGeometry x="355" y="400" width="80" height="60" as="geometry" />
        </mxCell>
        <mxCell id="iC6Ny62_zK4hwb1LCVob-13" value="" style="rhombus;whiteSpace=wrap;html=1;fillColor=#f8cecc;strokeColor=#b85450;" parent="1" vertex="1">
          <mxGeometry x="355" y="540" width="80" height="60" as="geometry" />
        </mxCell>
        <mxCell id="iC6Ny62_zK4hwb1LCVob-14" value="&#xa;&lt;span style=&quot;color: rgb(0, 0, 0); font-family: Helvetica; font-size: 12px; font-style: normal; font-variant-ligatures: normal; font-variant-caps: normal; font-weight: 400; letter-spacing: normal; orphans: 2; text-align: center; text-indent: 0px; text-transform: none; widows: 2; word-spacing: 0px; -webkit-text-stroke-width: 0px; white-space: normal; background-color: rgb(236, 236, 236); text-decoration-thickness: initial; text-decoration-style: initial; text-decoration-color: initial; display: inline !important; float: none;&quot;&gt;Спосіб оплати&lt;/span&gt;&#xa;&#xa;" style="rhombus;whiteSpace=wrap;html=1;fillColor=#f8cecc;strokeColor=#b85450;" parent="1" vertex="1">
          <mxGeometry x="490" y="760" width="80" height="60" as="geometry" />
        </mxCell>
        <mxCell id="iC6Ny62_zK4hwb1LCVob-15" value="" style="shape=line;html=1;strokeWidth=6;strokeColor=#000000;" parent="1" vertex="1">
          <mxGeometry x="270" y="610" width="250" height="10" as="geometry" />
        </mxCell>
        <mxCell id="iC6Ny62_zK4hwb1LCVob-16" value="" style="shape=line;html=1;strokeWidth=6;strokeColor=#000000;" parent="1" vertex="1">
          <mxGeometry x="270" y="1040" width="250" height="10" as="geometry" />
        </mxCell>
        <mxCell id="iC6Ny62_zK4hwb1LCVob-17" value="" style="ellipse;html=1;shape=endState;fillColor=#000000;strokeColor=#000000;" parent="1" vertex="1">
          <mxGeometry x="380" y="1280" width="30" height="30" as="geometry" />
        </mxCell>
        <mxCell id="iC6Ny62_zK4hwb1LCVob-18" value="" style="endArrow=classic;html=1;exitX=0.5;exitY=1;exitDx=0;exitDy=0;entryX=0.5;entryY=0;entryDx=0;entryDy=0;" parent="1" source="iC6Ny62_zK4hwb1LCVob-1" target="iC6Ny62_zK4hwb1LCVob-2" edge="1">
          <mxGeometry width="50" height="50" relative="1" as="geometry">
            <mxPoint x="390" y="410" as="sourcePoint" />
            <mxPoint x="440" y="360" as="targetPoint" />
          </mxGeometry>
        </mxCell>
        <mxCell id="iC6Ny62_zK4hwb1LCVob-19" value="" style="endArrow=classic;html=1;exitX=0.5;exitY=1;exitDx=0;exitDy=0;entryX=0.5;entryY=0;entryDx=0;entryDy=0;" parent="1" source="iC6Ny62_zK4hwb1LCVob-2" target="iC6Ny62_zK4hwb1LCVob-3" edge="1">
          <mxGeometry width="50" height="50" relative="1" as="geometry">
            <mxPoint x="390" y="410" as="sourcePoint" />
            <mxPoint x="440" y="360" as="targetPoint" />
          </mxGeometry>
        </mxCell>
        <mxCell id="iC6Ny62_zK4hwb1LCVob-20" value="" style="endArrow=classic;html=1;exitX=0.5;exitY=1;exitDx=0;exitDy=0;entryX=0.5;entryY=0;entryDx=0;entryDy=0;" parent="1" source="iC6Ny62_zK4hwb1LCVob-3" target="iC6Ny62_zK4hwb1LCVob-11" edge="1">
          <mxGeometry width="50" height="50" relative="1" as="geometry">
            <mxPoint x="390" y="410" as="sourcePoint" />
            <mxPoint x="440" y="360" as="targetPoint" />
          </mxGeometry>
        </mxCell>
        <mxCell id="iC6Ny62_zK4hwb1LCVob-21" value="Так" style="endArrow=classic;html=1;exitX=0.5;exitY=1;exitDx=0;exitDy=0;entryX=0.5;entryY=0;entryDx=0;entryDy=0;" parent="1" source="iC6Ny62_zK4hwb1LCVob-11" target="iC6Ny62_zK4hwb1LCVob-4" edge="1">
          <mxGeometry width="50" height="50" relative="1" as="geometry">
            <mxPoint x="390" y="410" as="sourcePoint" />
            <mxPoint x="440" y="360" as="targetPoint" />
          </mxGeometry>
        </mxCell>
        <mxCell id="iC6Ny62_zK4hwb1LCVob-22" value="Ні" style="endArrow=classic;html=1;exitX=0;exitY=0.5;exitDx=0;exitDy=0;entryX=0;entryY=0.5;entryDx=0;entryDy=0;edgeStyle=orthogonalEdgeStyle;" parent="1" source="iC6Ny62_zK4hwb1LCVob-11" target="iC6Ny62_zK4hwb1LCVob-2" edge="1">
          <mxGeometry x="-0.7647" width="50" height="50" relative="1" as="geometry">
            <mxPoint x="390" y="410" as="sourcePoint" />
            <mxPoint x="440" y="360" as="targetPoint" />
            <Array as="points">
              <mxPoint x="180" y="290" />
              <mxPoint x="180" y="130" />
            </Array>
            <mxPoint as="offset" />
          </mxGeometry>
        </mxCell>
        <mxCell id="iC6Ny62_zK4hwb1LCVob-23" value="" style="endArrow=classic;html=1;exitX=0.5;exitY=1;exitDx=0;exitDy=0;entryX=0.5;entryY=0;entryDx=0;entryDy=0;" parent="1" source="iC6Ny62_zK4hwb1LCVob-4" target="iC6Ny62_zK4hwb1LCVob-12" edge="1">
          <mxGeometry width="50" height="50" relative="1" as="geometry">
            <mxPoint x="390" y="410" as="sourcePoint" />
            <mxPoint x="440" y="360" as="targetPoint" />
          </mxGeometry>
        </mxCell>
        <mxCell id="iC6Ny62_zK4hwb1LCVob-24" value="Так" style="endArrow=classic;html=1;exitX=1;exitY=0.5;exitDx=0;exitDy=0;entryX=1;entryY=0.5;entryDx=0;entryDy=0;edgeStyle=orthogonalEdgeStyle;" parent="1" source="iC6Ny62_zK4hwb1LCVob-12" target="iC6Ny62_zK4hwb1LCVob-2" edge="1">
          <mxGeometry x="-0.7059" width="50" height="50" relative="1" as="geometry">
            <mxPoint x="390" y="410" as="sourcePoint" />
            <mxPoint x="440" y="360" as="targetPoint" />
            <Array as="points">
              <mxPoint x="600" y="430" />
              <mxPoint x="600" y="130" />
            </Array>
            <mxPoint as="offset" />
          </mxGeometry>
        </mxCell>
        <mxCell id="iC6Ny62_zK4hwb1LCVob-25" value="Ні" style="endArrow=classic;html=1;exitX=0.5;exitY=1;exitDx=0;exitDy=0;entryX=0.5;entryY=0;entryDx=0;entryDy=0;" parent="1" source="iC6Ny62_zK4hwb1LCVob-12" target="iC6Ny62_zK4hwb1LCVob-5" edge="1">
          <mxGeometry width="50" height="50" relative="1" as="geometry">
            <mxPoint x="390" y="410" as="sourcePoint" />
            <mxPoint x="440" y="360" as="targetPoint" />
          </mxGeometry>
        </mxCell>
        <mxCell id="iC6Ny62_zK4hwb1LCVob-26" value="" style="endArrow=classic;html=1;exitX=0.5;exitY=1;exitDx=0;exitDy=0;entryX=0.5;entryY=0;entryDx=0;entryDy=0;" parent="1" source="iC6Ny62_zK4hwb1LCVob-5" target="iC6Ny62_zK4hwb1LCVob-13" edge="1">
          <mxGeometry width="50" height="50" relative="1" as="geometry">
            <mxPoint x="390" y="410" as="sourcePoint" />
            <mxPoint x="440" y="360" as="targetPoint" />
          </mxGeometry>
        </mxCell>
        <mxCell id="iC6Ny62_zK4hwb1LCVob-27" value="Доставка / Самовивіз" style="endArrow=classic;html=1;exitX=0.5;exitY=1;exitDx=0;exitDy=0;entryX=0.5;entryY=0;entryDx=0;entryDy=0;" parent="1" target="iC6Ny62_zK4hwb1LCVob-15" edge="1">
          <mxGeometry x="1" y="-27" width="50" height="50" relative="1" as="geometry">
            <mxPoint x="395" y="630" as="sourcePoint" />
            <mxPoint x="440" y="390" as="targetPoint" />
            <Array as="points">
              <mxPoint x="360" y="660" />
            </Array>
            <mxPoint x="3" y="-6" as="offset" />
          </mxGeometry>
        </mxCell>
        <mxCell id="iC6Ny62_zK4hwb1LCVob-28" value="" style="endArrow=classic;html=1;exitX=0.25;exitY=1;exitDx=0;exitDy=0;entryX=0.5;entryY=0;entryDx=0;entryDy=0;edgeStyle=orthogonalEdgeStyle;" parent="1" source="iC6Ny62_zK4hwb1LCVob-15" target="iC6Ny62_zK4hwb1LCVob-6" edge="1">
          <mxGeometry width="50" height="50" relative="1" as="geometry">
            <mxPoint x="390" y="410" as="sourcePoint" />
            <mxPoint x="440" y="360" as="targetPoint" />
          </mxGeometry>
        </mxCell>
        <mxCell id="iC6Ny62_zK4hwb1LCVob-29" value="" style="endArrow=classic;html=1;exitX=0.75;exitY=1;exitDx=0;exitDy=0;entryX=0.5;entryY=0;entryDx=0;entryDy=0;edgeStyle=orthogonalEdgeStyle;" parent="1" source="iC6Ny62_zK4hwb1LCVob-15" target="iC6Ny62_zK4hwb1LCVob-7" edge="1">
          <mxGeometry width="50" height="50" relative="1" as="geometry">
            <mxPoint x="390" y="410" as="sourcePoint" />
            <mxPoint x="440" y="360" as="targetPoint" />
          </mxGeometry>
        </mxCell>
        <mxCell id="iC6Ny62_zK4hwb1LCVob-30" value="" style="endArrow=classic;html=1;exitX=0.5;exitY=1;exitDx=0;exitDy=0;entryX=0;entryY=0.5;entryDx=0;entryDy=0;edgeStyle=orthogonalEdgeStyle;" parent="1" source="iC6Ny62_zK4hwb1LCVob-6" target="iC6Ny62_zK4hwb1LCVob-7" edge="1">
          <mxGeometry width="50" height="50" relative="1" as="geometry">
            <mxPoint x="390" y="720" as="sourcePoint" />
            <mxPoint x="440" y="670" as="targetPoint" />
          </mxGeometry>
        </mxCell>
        <mxCell id="iC6Ny62_zK4hwb1LCVob-31" value="" style="endArrow=classic;html=1;" parent="1" source="iC6Ny62_zK4hwb1LCVob-7" target="iC6Ny62_zK4hwb1LCVob-14" edge="1">
          <mxGeometry width="50" height="50" relative="1" as="geometry">
            <mxPoint x="530" y="710" as="sourcePoint" />
            <mxPoint x="440" y="670" as="targetPoint" />
          </mxGeometry>
        </mxCell>
        <mxCell id="iC6Ny62_zK4hwb1LCVob-32" value="Картка" style="endArrow=classic;html=1;exitX=0.5;exitY=1;exitDx=0;exitDy=0;entryX=0.5;entryY=0;entryDx=0;entryDy=0;" parent="1" source="iC6Ny62_zK4hwb1LCVob-14" target="iC6Ny62_zK4hwb1LCVob-8" edge="1">
          <mxGeometry width="50" height="50" relative="1" as="geometry">
            <mxPoint x="390" y="720" as="sourcePoint" />
            <mxPoint x="440" y="670" as="targetPoint" />
          </mxGeometry>
        </mxCell>
        <mxCell id="iC6Ny62_zK4hwb1LCVob-33" value="Готівка при отриманні" style="endArrow=classic;html=1;entryX=1;entryY=0.25;entryDx=0;entryDy=0;edgeStyle=orthogonalEdgeStyle;" parent="1" source="iC6Ny62_zK4hwb1LCVob-14" target="iC6Ny62_zK4hwb1LCVob-16" edge="1">
          <mxGeometry x="0.2" width="50" height="50" relative="1" as="geometry">
            <mxPoint x="580" y="780" as="sourcePoint" />
            <mxPoint x="440" y="670" as="targetPoint" />
            <Array as="points">
              <mxPoint x="660" y="780" />
              <mxPoint x="660" y="1043" />
            </Array>
            <mxPoint as="offset" />
          </mxGeometry>
        </mxCell>
        <mxCell id="iC6Ny62_zK4hwb1LCVob-34" value="" style="endArrow=classic;html=1;exitX=0.5;exitY=1;exitDx=0;exitDy=0;entryX=0.75;entryY=0;entryDx=0;entryDy=0;edgeStyle=orthogonalEdgeStyle;" parent="1" source="iC6Ny62_zK4hwb1LCVob-8" target="iC6Ny62_zK4hwb1LCVob-16" edge="1">
          <mxGeometry width="50" height="50" relative="1" as="geometry">
            <mxPoint x="390" y="720" as="sourcePoint" />
            <mxPoint x="440" y="670" as="targetPoint" />
          </mxGeometry>
        </mxCell>
        <mxCell id="iC6Ny62_zK4hwb1LCVob-35" value="" style="endArrow=classic;html=1;exitX=0.5;exitY=1;exitDx=0;exitDy=0;entryX=0.5;entryY=0;entryDx=0;entryDy=0;" parent="1" source="iC6Ny62_zK4hwb1LCVob-16" target="iC6Ny62_zK4hwb1LCVob-9" edge="1">
          <mxGeometry width="50" height="50" relative="1" as="geometry">
            <mxPoint x="390" y="990" as="sourcePoint" />
            <mxPoint x="440" y="940" as="targetPoint" />
          </mxGeometry>
        </mxCell>
        <mxCell id="iC6Ny62_zK4hwb1LCVob-36" value="" style="endArrow=classic;html=1;exitX=0.5;exitY=1;exitDx=0;exitDy=0;entryX=0.5;entryY=0;entryDx=0;entryDy=0;" parent="1" source="iC6Ny62_zK4hwb1LCVob-9" target="iC6Ny62_zK4hwb1LCVob-10" edge="1">
          <mxGeometry width="50" height="50" relative="1" as="geometry">
            <mxPoint x="390" y="990" as="sourcePoint" />
            <mxPoint x="440" y="940" as="targetPoint" />
          </mxGeometry>
        </mxCell>
        <mxCell id="iC6Ny62_zK4hwb1LCVob-37" value="" style="endArrow=classic;html=1;exitX=0.5;exitY=1;exitDx=0;exitDy=0;entryX=0.5;entryY=0;entryDx=0;entryDy=0;" parent="1" source="iC6Ny62_zK4hwb1LCVob-10" target="iC6Ny62_zK4hwb1LCVob-17" edge="1">
          <mxGeometry width="50" height="50" relative="1" as="geometry">
            <mxPoint x="390" y="990" as="sourcePoint" />
            <mxPoint x="395" y="1250" as="targetPoint" />
          </mxGeometry>
        </mxCell>
        <mxCell id="iC6Ny62_zK4hwb1LCVob-38" value="Товар доступний?" style="text;html=1;strokeColor=none;fillColor=none;align=center;verticalAlign=middle;whiteSpace=wrap;rounded=0;" parent="1" vertex="1">
          <mxGeometry x="345" y="280" width="100" height="20" as="geometry" />
        </mxCell>
        <mxCell id="iC6Ny62_zK4hwb1LCVob-39" value="Продовжити покупки?" style="text;html=1;strokeColor=none;fillColor=none;align=center;verticalAlign=middle;whiteSpace=wrap;rounded=0;" parent="1" vertex="1">
          <mxGeometry x="345" y="420" width="100" height="20" as="geometry" />
        </mxCell>
        <mxCell id="iC6Ny62_zK4hwb1LCVob-40" value="Доставка чи самовивіз?" style="text;html=1;strokeColor=none;fillColor=none;align=center;verticalAlign=middle;whiteSpace=wrap;rounded=0;" parent="1" vertex="1">
          <mxGeometry x="345" y="560" width="100" height="20" as="geometry" />
        </mxCell>
      </root>
    </mxGraphModel>
  </diagram>
</mxfile>
